<svg width="312" height="300" viewBox="0 0 312 300" fill="none" xmlns="http://www.w3.org/2000/svg">
<g clip-path="url(#clip0_778_19429)">
<path d="M0 20C0 8.9543 8.95431 0 20 0H292C303.046 0 312 8.95431 312 20V280C312 291.046 303.046 300 292 300H20C8.95431 300 0 291.046 0 280V20Z" fill="#4E4E4E"/>
<ellipse cx="180" cy="249" rx="107" ry="109" fill="white" fill-opacity="0.3"/>
<ellipse cx="215" cy="245.499" rx="124" ry="112.5" fill="white"/>
<rect x="194.916" y="216" width="10.0655" height="18.1252" rx="5.03277" transform="rotate(68.9576 194.916 216)" fill="#1A1A1A"/>
<rect width="10.0655" height="18.1252" rx="5.03277" transform="matrix(-0.359059 0.933315 0.933315 0.359059 230.613 216)" fill="#1A1A1A"/>
<path d="M179.502 251.421C182.104 253.526 185.897 253.526 188.498 251.421C191.1 249.316 191.76 245.713 190.064 242.875L185.174 235.615C184.754 234.99 183.887 234.812 183.238 235.218C183.075 235.32 182.936 235.455 182.828 235.615L177.935 242.875C176.24 245.713 176.9 249.316 179.502 251.421Z" fill="#8ACDF4"/>
<path d="M202.83 237.937C204.353 239.691 205.708 243.22 203.516 248.563" stroke="#1A1A1A" stroke-width="4.41615" stroke-linecap="round"/>
<path d="M224.096 237.689C222.614 239.479 221.341 243.038 223.655 248.329" stroke="#1A1A1A" stroke-width="4.41615" stroke-linecap="round"/>
<path d="M206.507 244.254C210.041 243.327 214.461 242.389 222.456 244.069" stroke="#1A1A1A" stroke-width="4.41615" stroke-linecap="round"/>
<path d="M208.246 104.535C216.785 106.171 224.744 114.573 229.517 121.611C230.471 123.017 231.119 124.599 231.54 126.245C233.087 132.295 231.196 138.705 226.613 142.946L222.271 146.965C217.21 151.649 209.546 152.11 203.961 148.065C195.239 141.85 190.43 136.076 188.115 131.022C182.569 118.917 195.168 102.031 208.246 104.535Z" fill="white"/>
<path d="M247.76 113.257C239.154 112.016 228.89 117.362 222.081 122.458C220.721 123.476 219.592 124.759 218.657 126.178C215.221 131.392 214.917 138.069 217.865 143.573L220.659 148.789C223.915 154.867 231.009 157.803 237.608 155.803C247.88 152.773 254.31 148.884 258.147 144.862C267.339 135.228 260.939 115.156 247.76 113.257Z" fill="white"/>
<path d="M195 145.461L199.349 153.892" stroke="#FBC6CD" stroke-width="4" stroke-linecap="round"/>
<path d="M249.889 151.654L244.999 159.784" stroke="#FBC6CD" stroke-width="4" stroke-linecap="round"/>
<path d="M223.023 147L221.001 156.793" stroke="#FBC6CD" stroke-width="4" stroke-linecap="round"/>
<path d="M20.2874 159.435L20.2832 167.771L12.2368 183.865L12.0372 184.332C11.7311 185.186 11.7066 186.116 11.9673 186.985C12.228 187.854 12.7601 188.616 13.4858 189.161L27.6413 199.773L20.7335 213.591C20.4381 214.181 20.2839 214.83 20.2832 215.489L20.2832 230L-10.2921 199.735C-14.6752 195.469 -17.3772 189.77 -17.9049 183.677C-18.4327 177.585 -16.7508 171.506 -13.1665 166.551C-9.5822 161.595 -4.33449 158.094 1.61856 156.685C7.57161 155.277 13.8329 156.055 19.2593 158.879L20.2874 159.435ZM44.8004 156.297L45.8455 156.454C50.4675 157.251 54.7797 159.308 58.3076 162.397C61.8355 165.487 64.4421 169.49 65.8406 173.965C67.2391 178.44 67.3752 183.214 66.2339 187.762C65.0927 192.309 62.7183 196.454 59.3722 199.739L59.1852 199.896L28.7799 229.996L28.7799 216.487L36.8262 200.401L37.0259 199.934C37.332 199.08 37.3565 198.151 37.0958 197.282C36.8351 196.413 36.3029 195.651 35.5772 195.106L21.4175 184.49L28.3295 170.676C28.625 170.086 28.7792 169.436 28.7799 168.777V159.49C33.6237 156.699 39.2557 155.576 44.8004 156.297Z" fill="#838383" fill-opacity="0.5"/>
<path d="M282.287 18.4348L282.283 26.7709L274.237 42.8653L274.037 43.3325C273.731 44.1864 273.707 45.1159 273.967 45.9847C274.228 46.8536 274.76 47.6162 275.486 48.1608L289.641 58.773L282.734 72.5913C282.438 73.1805 282.284 73.8304 282.283 74.4895V89L251.708 58.7347C247.325 54.4688 244.623 48.7695 244.095 42.6773C243.567 36.5851 245.249 30.5064 248.833 25.5509C252.418 20.5954 257.666 17.0938 263.619 15.6852C269.572 14.2766 275.833 15.0551 281.259 17.8785L282.287 18.4348ZM306.8 15.2966L307.845 15.4538C312.467 16.2512 316.78 18.3079 320.308 21.3975C323.835 24.4871 326.442 28.4897 327.841 32.9649C329.239 37.44 329.375 42.2141 328.234 46.7616C327.093 51.309 324.718 55.4536 321.372 58.739L321.185 58.8961L290.78 88.9958V75.4874L298.826 59.4014L299.026 58.9343C299.332 58.0804 299.356 57.1509 299.096 56.2821C298.835 55.4132 298.303 54.6506 297.577 54.106L283.418 43.4896L290.33 29.6755C290.625 29.0863 290.779 28.4364 290.78 27.7773V18.4901C295.624 15.6985 301.256 14.5764 306.8 15.2966Z" fill="#838383" fill-opacity="0.5"/>
<rect x="23" y="24" width="160" height="110" rx="48" fill="white"/>
<path d="M88.3202 55.9862L90.0059 61.1239L88.3095 72.6706L88.2811 72.9989C88.2655 73.587 88.4387 74.1648 88.7752 74.6474C89.1118 75.13 89.594 75.4922 90.1514 75.6809L101.02 79.3544L99.5638 89.268C99.5011 89.6909 99.5378 90.1226 99.6708 90.5289L102.61 99.4705L77.6467 87.0107C74.0829 85.2693 71.2643 82.3043 69.7053 78.6571C68.1463 75.0098 67.9511 70.9235 69.1552 67.1442C70.3593 63.3649 72.8825 60.1447 76.264 58.0715C79.6456 55.9983 83.6599 55.2104 87.5743 55.8516L88.3202 55.9862ZM102.784 49.0897L103.459 48.9749C106.468 48.5306 109.54 48.9249 112.339 50.1145C115.138 51.3042 117.554 53.2429 119.322 55.7175C121.09 58.192 122.141 61.1063 122.359 64.1396C122.577 67.1728 121.954 70.2075 120.558 72.9094L120.475 73.0441L107.843 97.7477L105.107 89.4237L106.805 77.8822L106.833 77.5539C106.849 76.9657 106.676 76.388 106.339 75.9054C106.002 75.4228 105.52 75.0606 104.963 74.8719L94.0908 71.1966L95.5505 61.2848C95.6131 60.8619 95.5765 60.4302 95.4434 60.0239L93.5624 54.3009C95.9806 51.6001 99.2224 49.7684 102.784 49.0897Z" fill="#666666"/>
<path d="M133.832 148.385C125.429 145.505 119.067 138.027 115.55 132.289C114.458 130.506 115.717 128.329 117.802 128.169L129.337 127.282C131.23 127.136 132.823 128.776 133.016 130.664C133.465 135.07 135.21 140.426 136.886 144.645C137.746 146.812 136.038 149.141 133.832 148.385Z" fill="white"/>
<path d="M73.8724 103.923L77.2185 101.165C78.1386 100.407 79.5137 100.617 80.1654 101.616L85.3801 109.605C85.9702 110.509 87.171 110.781 88.0935 110.221L91.5364 108.129C92.3384 107.641 93.3715 107.777 94.0202 108.455L94.5349 108.994C95.2647 109.757 96.462 109.821 97.2692 109.14L103.3 104.056" stroke="#666666" stroke-width="4" stroke-linecap="round"/>
<path d="M113.709 100.996L118.556 102.132C119.621 102.382 120.689 101.729 120.953 100.667L123.58 90.0808C123.818 89.1248 124.715 88.484 125.697 88.5702L130.7 89.01C131.547 89.0845 132.349 88.6154 132.698 87.8406L133.323 86.4566C133.72 85.5775 134.688 85.1069 135.624 85.3375L144.026 87.406" stroke="#666666" stroke-width="4" stroke-linecap="round"/>
</g>
<defs>
<clipPath id="clip0_778_19429">
<path d="M0 20C0 8.9543 8.95431 0 20 0H292C303.046 0 312 8.95431 312 20V280C312 291.046 303.046 300 292 300H20C8.95431 300 0 291.046 0 280V20Z" fill="white"/>
</clipPath>
</defs>
</svg>
