<svg width="24" height="24" viewBox="0 0 24 24" fill="none" xmlns="http://www.w3.org/2000/svg">
<g filter="url(#filter0_d_763_29871)">
<path d="M2 11C2 5.47715 6.47715 1 12 1C17.5228 1 22 5.47715 22 11C22 16.5228 17.5228 21 12 21C6.47715 21 2 16.5228 2 11Z" fill="white"/>
<path d="M12 1.5C17.2467 1.5 21.5 5.7533 21.5 11C21.5 16.2467 17.2467 20.5 12 20.5C6.7533 20.5 2.5 16.2467 2.5 11C2.5 5.7533 6.7533 1.5 12 1.5Z" stroke="#D7D7D7"/>
<rect x="4" y="3" width="16" height="16" rx="8" fill="#14DE2F"/>
<path d="M9.60936 5.49564C8.80936 5.28105 7.98644 5.75605 7.77394 6.55605L6.71561 10.504C6.50103 11.304 6.97603 12.1269 7.77603 12.3415L11.7239 13.3998C12.5239 13.6144 13.3469 13.1394 13.5614 12.3394L14.6198 8.39147C14.8344 7.59147 14.3594 6.76855 13.5594 6.55397L9.60936 5.49564ZM10.0885 9.78105C9.96144 9.5748 9.95728 9.31439 10.076 9.10397C10.1948 8.89355 10.4198 8.76439 10.6635 8.76647C10.9052 8.76855 11.126 8.90189 11.2427 9.11439C11.3698 9.32064 11.3739 9.58105 11.2552 9.79147C11.1364 10.0019 10.9114 10.1311 10.6677 10.129C10.426 10.1269 10.2052 9.99355 10.0885 9.78105ZM8.31353 10.0373C8.51978 9.91022 8.78019 9.90605 8.99061 10.0248C9.20103 10.1436 9.33019 10.3686 9.32811 10.6123C9.32603 10.854 9.19269 11.0748 8.98019 11.1915C8.77394 11.3186 8.51353 11.3227 8.30311 11.204C8.09269 11.0852 7.96353 10.8602 7.96561 10.6165C7.96769 10.3748 8.10103 10.154 8.31353 10.0373ZM12.1677 12.0456C11.9614 12.1727 11.701 12.1769 11.4906 12.0581C11.2802 11.9394 11.151 11.7144 11.1531 11.4706C11.1552 11.229 11.2885 11.0081 11.501 10.8915C11.7073 10.7644 11.9677 10.7602 12.1781 10.879C12.3885 10.9977 12.5177 11.2227 12.5156 11.4665C12.5135 11.7081 12.3802 11.929 12.1677 12.0456ZM12.3552 7.70397C12.5614 7.57689 12.8219 7.57272 13.0323 7.69147C13.2427 7.81022 13.3719 8.03522 13.3698 8.27897C13.3677 8.52064 13.2344 8.74147 13.0219 8.85814C12.8156 8.98522 12.5552 8.98939 12.3448 8.87064C12.1344 8.75189 12.0052 8.52689 12.0073 8.28314C12.0094 8.04147 12.1427 7.82064 12.3552 7.70397ZM9.83436 8.00397C9.62811 8.13105 9.36769 8.13522 9.15728 8.01647C8.94686 7.89772 8.81769 7.67272 8.81978 7.42897C8.82186 7.1873 8.95519 6.96647 9.16769 6.8498C9.37394 6.72272 9.63436 6.71855 9.84477 6.8373C10.0552 6.95605 10.1844 7.18105 10.1823 7.4248C10.1802 7.66647 10.0469 7.8873 9.83436 8.00397ZM15.3719 9.44772L14.526 12.5977C14.1677 13.9311 12.7969 14.7227 11.4635 14.3665L10.6656 14.1519V14.7811C10.6656 15.5165 11.2635 16.1144 11.9989 16.1144H15.9989C16.7344 16.1144 17.3323 15.5165 17.3323 14.7811V10.7811C17.3323 10.0456 16.7344 9.44772 15.9989 9.44772H15.3719Z" fill="white"/>
<path d="M7.77326 6.55679C7.98576 5.75679 8.80919 5.28166 9.60919 5.49624L13.5594 6.55483C14.3591 6.76962 14.8335 7.59193 14.619 8.39175L13.5613 12.34C13.3467 13.1399 12.5234 13.6151 11.7235 13.4005L7.77521 12.3419C6.97545 12.1272 6.50109 11.3039 6.71564 10.5041L7.77326 6.55679ZM12.1785 10.88C11.9681 10.7613 11.707 10.7647 11.5008 10.8917C11.2885 11.0084 11.1554 11.2294 11.1531 11.4708C11.1511 11.7146 11.2806 11.94 11.491 12.0587C11.7014 12.1774 11.9616 12.1731 12.1678 12.046C12.3803 11.9294 12.5134 11.7086 12.5154 11.4669C12.5175 11.2234 12.3887 10.9988 12.1785 10.88ZM8.99103 10.0255C8.78061 9.90679 8.51955 9.91115 8.3133 10.0382C8.10107 10.155 7.96772 10.3758 7.96564 10.6173C7.96366 10.861 8.0932 11.0855 8.30353 11.2042C8.51384 11.3229 8.7741 11.3194 8.98029 11.1925C9.19279 11.0759 9.32586 10.8541 9.32794 10.6124C9.32987 10.369 9.20118 10.1443 8.99103 10.0255ZM10.6639 8.76675C10.4201 8.76466 10.1947 8.89422 10.076 9.10464C9.95737 9.31497 9.96174 9.57523 10.0887 9.78139C10.2053 9.99387 10.4262 10.1279 10.6678 10.13C10.9115 10.1321 11.1369 10.0026 11.2557 9.79214C11.3743 9.58185 11.3698 9.32155 11.243 9.11538C11.1263 8.90293 10.9055 8.76889 10.6639 8.76675ZM13.032 7.69253C12.8217 7.57385 12.5615 7.57723 12.3553 7.70425C12.1429 7.82086 12.0098 8.04182 12.0076 8.28335C12.0055 8.52698 12.1343 8.75245 12.3445 8.87124C12.555 8.98999 12.816 8.98563 13.0223 8.85854C13.2346 8.74184 13.3679 8.52101 13.3699 8.27944C13.372 8.03573 13.2424 7.81126 13.032 7.69253ZM9.84455 6.83804C9.63417 6.71942 9.37396 6.7237 9.16779 6.85073C8.95541 6.96743 8.82222 7.18825 8.82013 7.42983C8.81816 7.6733 8.94697 7.89798 9.15705 8.01675C9.36745 8.13549 9.62854 8.13209 9.83478 8.00503C10.0473 7.88836 10.1804 7.66662 10.1824 7.42495C10.1844 7.18136 10.0548 6.95672 9.84455 6.83804Z" fill="white"/>
</g>
<defs>
<filter id="filter0_d_763_29871" x="0" y="0" width="24" height="24" filterUnits="userSpaceOnUse" color-interpolation-filters="sRGB">
<feFlood flood-opacity="0" result="BackgroundImageFix"/>
<feColorMatrix in="SourceAlpha" type="matrix" values="0 0 0 0 0 0 0 0 0 0 0 0 0 0 0 0 0 0 127 0" result="hardAlpha"/>
<feOffset dy="1"/>
<feGaussianBlur stdDeviation="1"/>
<feComposite in2="hardAlpha" operator="out"/>
<feColorMatrix type="matrix" values="0 0 0 0 0 0 0 0 0 0 0 0 0 0 0 0 0 0 0.1 0"/>
<feBlend mode="normal" in2="BackgroundImageFix" result="effect1_dropShadow_763_29871"/>
<feBlend mode="normal" in="SourceGraphic" in2="effect1_dropShadow_763_29871" result="shape"/>
</filter>
</defs>
</svg>
